<svg width="22" height="18" viewBox="0 0 22 18" fill="none" xmlns="http://www.w3.org/2000/svg">
<path d="M19.4099 0C20.7999 2.71 21.3499 5.84 20.9999 9C20.7999 12.16 19.6999 15.29 17.8299 18L16.2999 17C17.9099 14.57 18.8499 11.8 18.9999 9C19.3399 6.2 18.8899 3.43 17.6999 1L19.4099 0ZM4.1699 0L5.6999 1C4.0899 3.43 3.1499 6.2 2.9999 9C2.6599 11.8 3.1199 14.57 4.2999 17L2.6099 18C1.2099 15.29 0.649902 12.17 0.999902 9C1.1999 5.84 2.2999 2.71 4.1699 0ZM11.0799 7.68L13.3999 4.45H15.9299L12.1499 9.45L14.3499 14.37H12.0899L10.7099 11L8.2799 14.33H5.7599L9.6599 9.21L7.5299 4.45H9.7999L11.0799 7.68Z" fill="#E0E0EC"/>
</svg>
